<?xml version="1.0" encoding="UTF-8" standalone="no"?><svg width="60" height="60" viewBox="0 0 60 60" fill="none" xmlns="http://www.w3.org/2000/svg">
<path d="M19.6535 15.7276V10.4146H40.5869V15.9989L45.9756 17.7935C44.7171 19.9824 42.7238 20.6889 40.0444 20.0408C38.9846 19.7727 37.8381 20.055 36.5418 21.2078C34.1747 22.6902 31.8123 22.8542 29.4452 20.7615C27.0955 21.6604 24.6747 22.676 23.9603 21.3891L21.896 19.8626L17.9408 19.6844C16.1399 19.4746 14.4115 19.2207 14.1718 17.9765L19.6535 16.0872V15.7276Z" fill="#B0E9FC"/>
<path d="M17.2769 19.913C14.7521 20.7094 13.7033 22.2391 14.0566 24.4722V45.1375C14.2932 48.5786 15.9396 50.0831 18.7356 50.0011H41.541C44.1304 49.5169 45.6602 47.9667 45.8494 45.0792V23.7405C46.2783 21.6761 45.3999 20.3798 43.1117 19.913L38.9168 19.9714C36.0356 22.2628 32.9825 23.004 29.6187 20.946C26.81 22.0467 23.9556 22.2738 20.986 20.096L17.2769 19.913Z" fill="#FFDA6A"/>
<path d="M25.7597 33.4675L29.841 35.8236L33.9224 33.4675V28.7554L29.841 26.3993L25.7597 28.7554V33.4675Z" fill="#FAAB3F"/>
<path d="M21.8566 40.5862L25.9379 42.9423L30.0192 40.5894V35.8772L25.9379 33.518L21.8566 35.8772V40.5862Z" fill="#FAAB3F"/>
<path d="M29.8758 40.5862L33.9571 42.9423L38.0385 40.5894V35.8772L33.9571 33.518L29.8758 35.8772V40.5862Z" fill="#FAAB3F"/>
<path d="M18.2026 50.8921C15.3624 50.8921 13.0584 48.5864 13.0584 45.7478V24.0432C13.0584 22.6239 13.634 21.337 14.5676 20.4066L14.7726 20.2142L14.443 20.0328C13.8185 19.5866 13.3391 18.9179 13.0394 17.9748C12.8959 17.5017 13.1561 17.0034 13.6229 16.8504L18.5448 15.2561L18.5101 15.0984C18.4991 15.0195 18.496 14.9375 18.496 14.8508V10.7694C18.496 10.0944 18.8871 9.56615 19.3665 9.27756C19.6677 9.0962 20.0288 9 20.3994 9H39.718C40.0886 9 40.4481 9.0962 40.7509 9.27756C41.2319 9.56615 41.6262 10.0944 41.6262 10.7694V14.8508C41.6262 15.0226 41.5993 15.1804 41.5583 15.327L41.552 15.3475L46.1932 16.8504C46.66 17.005 46.9202 17.5017 46.7767 17.9748C46.4818 18.9179 46.0008 19.5866 45.37 20.0328L45.2502 20.0975L45.4047 20.3073L45.3464 20.3451L45.411 20.4066C46.3399 21.3355 46.9171 22.6223 46.9171 24.0432V45.7478C46.9171 48.588 44.6115 50.8921 41.776 50.8921H18.2026ZM41.7744 49.1636C43.6574 49.1636 45.1902 47.6339 45.1902 45.7478V24.0432C45.1902 22.6271 44.326 21.4159 43.1007 20.8939L42.6544 20.7567L41.9684 20.7772C41.1625 20.7567 40.2746 20.6984 39.5303 20.7882C38.8411 20.8781 38.3223 21.0863 37.9312 21.5184C37.8996 21.5594 37.8586 21.5973 37.8145 21.6241C36.34 22.7863 34.9979 23.2121 33.8041 23.2232C33.4036 23.2232 33.0188 23.1853 32.6545 23.1128C31.3471 22.8447 30.3284 22.1634 29.7732 21.9884C29.7496 21.9852 29.7259 21.9742 29.7054 21.9679C29.1188 21.7345 28.6835 21.7455 28.2861 21.8417C27.8067 21.9615 27.2879 22.2391 26.8242 22.4378C26.2581 22.6775 25.5547 22.922 24.7047 22.8494C23.8547 22.7737 22.9731 22.3937 21.9954 21.6256C21.9512 21.5988 21.9165 21.561 21.8818 21.52C21.4907 21.0879 20.9735 20.8781 20.2796 20.7898C19.9295 20.7457 19.5494 20.7346 19.1346 20.7425C18.7057 20.7488 18.2909 20.7693 17.8478 20.7804L17.3021 20.763L16.8732 20.8971L16.7502 20.9617L16.2424 21.2535L15.7866 21.6304C15.17 22.2486 14.7852 23.1017 14.7852 24.0448V45.7494C14.7852 47.6355 16.3149 49.1652 18.2011 49.1652H41.7744V49.1636ZM25.4585 44.5508C25.3071 44.5508 25.1605 44.513 25.0233 44.4373L20.6328 41.903C20.3647 41.7485 20.2007 41.4599 20.2007 41.1524V36.0791C20.2007 35.7731 20.3647 35.4861 20.6328 35.3316L24.6842 32.996V28.2413C24.6842 27.9322 24.8451 27.6451 25.1131 27.4906L29.5067 24.9563C29.7748 24.8018 30.1076 24.8018 30.3741 24.9563L34.7677 27.4906C35.031 27.6451 35.1966 27.9337 35.1966 28.2413L35.1935 33.037L39.1077 35.2937C39.3757 35.4514 39.5366 35.7369 39.5366 36.0412V41.1145C39.5366 41.4236 39.3757 41.7075 39.1077 41.8652L34.7141 44.3994C34.58 44.4751 34.4286 44.513 34.2788 44.513C34.1306 44.513 33.9839 44.4751 33.8467 44.3994L29.9057 42.1222L25.8922 44.4373C25.7566 44.513 25.6052 44.5508 25.4585 44.5508ZM25.4585 42.6884L28.9879 40.654V36.579L25.4585 34.5415L21.9291 36.579V40.654L25.4585 42.6884ZM34.2804 42.6537L37.8066 40.613V36.5411L34.2804 34.5036L30.751 36.5411V40.613L34.2804 42.6537ZM29.9373 34.8506L33.4666 32.8131V28.738L29.9373 26.7005L26.4079 28.738V32.8131L29.9373 34.8506ZM18.3099 25.8742L16.4884 25.7433C16.5499 24.8885 16.7628 24.0795 17.2296 23.4077C17.709 22.7185 18.4029 22.2486 19.2876 22.012L19.7607 23.772C19.2529 23.9092 18.9375 24.1489 18.7278 24.4517C18.5054 24.7702 18.354 25.2291 18.3099 25.8742ZM33.7032 21.4222C34.4475 21.4364 35.3433 21.2062 36.4204 20.4303L36.6806 20.2316L36.8967 20.0187C37.6237 19.3737 38.4816 19.1103 39.3079 19.003C39.7511 18.9479 40.1832 18.9384 40.6247 18.9447L41.7697 18.9763L41.7728 18.8974C41.9479 18.8974 42.1229 18.9037 42.298 18.9242L42.5724 18.9652L43.1385 18.9479C43.4681 18.9132 43.7567 18.8517 44.0059 18.746C44.2125 18.6561 44.4143 18.5331 44.5925 18.3281L44.6572 18.2429L39.6486 16.6202H20.4026L20.2039 16.6091L15.159 18.2414L15.2205 18.3265C15.4018 18.5315 15.6005 18.6561 15.8134 18.7444C16.061 18.8501 16.348 18.9132 16.6776 18.9463L17.3778 18.9668H18.2042L19.1583 18.9431C19.6078 18.9368 20.0604 18.9463 20.5067 19.0015C21.333 19.1072 22.1941 19.3721 22.9179 20.0171L23.1308 20.23L23.391 20.4255C24.0423 20.8781 24.5123 21.0264 24.8656 21.0563C25.2708 21.0942 25.6414 20.9838 26.1177 20.7819C26.6397 20.5548 27.1948 20.2599 27.8603 20.0959C28.6015 19.9177 29.4216 19.9177 30.3772 20.2946L30.6138 20.3877C31.3203 20.6684 32.0852 21.1636 33.014 21.3512C33.2269 21.3907 33.4635 21.4222 33.7032 21.4222ZM39.6959 14.6962V10.9224H20.4262V14.6962H39.6959Z" fill="#4D3F2D"/>
</svg>
