<?xml version="1.0" encoding="UTF-8" standalone="no"?><svg width="60" height="60" viewBox="0 0 60 60" fill="none" xmlns="http://www.w3.org/2000/svg">
<path d="M30.3105 15.7983C23.0765 10.4874 16.6623 9.85424 11.567 16.8676C10.002 19.3151 9.2043 22.1972 9.7729 25.8362C11.9472 33.537 18.4275 40.6556 29.3193 47.1733C39.3895 42.4496 47.0393 37.0063 48.9539 29.8759C54.3361 14.8104 38.5612 6.07092 30.3105 15.7983Z" fill="#FAAB3F"/>
<path d="M27.8952 14.3488V24.9707C23.3057 20.9802 19.8142 19.3237 20.6646 26.8241H10.63L11.6688 30.3036H20.8564C21.3232 31.5427 22.1837 32.5271 24.2324 32.7919L26.9871 35.3175L28.1226 33.8273V45.9428C29.158 47.2888 30.3716 47.3261 31.777 45.9428V32.6477L33.4998 35.0477L36.7501 32.522C37.7227 32.8394 38.6443 32.5509 39.3691 30.1662H48.224L49.7669 26.8224H39.914C40.3722 20.7834 37.4478 20.931 32.1877 25.3763V14.5287L30.1051 15.705L27.8952 14.3488Z" fill="#FFDA6A"/>
<path d="M29.5195 47.9931C28.9866 47.9558 28.44 47.7827 27.8443 47.4313L27.7967 47.3872C21.1806 42.6313 14.6493 37.5682 11.3022 31.8244L10.7285 30.7229L9.93413 28.9288L9.80853 28.6216C9.24672 26.9837 8.95478 25.2932 9.0057 23.5398C9.0057 16.6453 14.4541 11.0017 21.2213 11.0017C24.672 11.0017 27.7866 12.4733 30.0016 14.8258L30.0576 14.8767L30.8927 14.0586C33.0347 12.1542 35.8268 11 38.8854 11C45.2215 11 50.4203 15.9596 51.0416 22.2651L51.1044 23.5042V23.5449L51.0755 25.3899C50.9788 26.5475 50.7462 27.6609 50.4017 28.7336L50.176 29.3294L49.3918 31.1201L49.0286 31.8414C45.6475 37.8482 38.6885 42.6143 32.0299 47.2276L31.9959 47.2463C31.3594 47.6452 30.7162 47.9235 30.0321 47.9897C29.8624 47.9999 29.6893 48.005 29.5195 47.9931ZM29.8709 46.1991C30.0525 46.1838 30.2341 46.1363 30.4225 46.0582L31.0403 45.7323L31.4698 45.4319V32.0502L30.779 30.3715L30.7603 30.2833H29.8912L29.8726 30.3715L28.8338 32.8972L28.8491 32.9566V45.919L29.3481 46.1447C29.5229 46.1991 29.696 46.2177 29.8709 46.1991ZM27.3079 44.8056V35.8471L27.1195 35.9065C26.9532 35.9184 26.775 35.8692 26.6273 35.7622L23.3175 33.3215L23.158 33.3334C23.051 33.33 22.9441 33.3266 22.8355 33.3079C21.8476 33.1636 21.1602 32.4541 20.7393 31.4256L20.7206 31.373L20.6205 31.3882H13.1353L14.1384 32.8785C16.7608 36.4547 20.7104 39.8647 25.2219 43.2678L27.3079 44.8056ZM33.0024 44.3575L34.6268 43.222C39.8053 39.5456 44.3864 35.8912 47.0053 31.7379L47.209 31.3865H39.7119L39.6967 31.4239C39.2758 32.4592 38.5798 33.1619 37.6039 33.3062L37.3187 33.3283L34.0242 35.7622C33.8867 35.859 33.7391 35.9065 33.5914 35.9099C33.566 35.9099 33.5439 35.9099 33.5252 35.9065C33.3843 35.9031 33.2485 35.8539 33.1263 35.7775L33.0041 35.618V44.3575H33.0024ZM26.741 33.9427L28.1837 30.4258L27.8545 30.7398C27.0482 31.4714 26.2352 32.1266 25.4426 32.5967L25.1252 32.7444L26.741 33.9427ZM33.902 33.9427L35.4177 32.8225L35.3295 32.7817C34.6523 32.427 33.958 31.9229 33.2655 31.339L32.5917 30.7466L33.902 33.9427ZM23.1987 31.8007C23.5568 31.8007 24.0745 31.6411 24.7823 31.2015C25.5665 30.7127 26.4694 29.9591 27.4743 28.9831C27.5523 28.9084 27.6372 28.8575 27.7289 28.8202L27.773 28.8083L27.5948 25.9534L27.5795 25.9347C26.444 24.862 25.3747 24.0269 24.4428 23.4719C23.4855 22.9016 22.771 22.6996 22.3161 22.7319C21.98 22.7573 21.6983 22.9135 21.5218 23.4906C21.3215 24.1525 21.2926 25.2728 21.6066 26.9973C21.61 27.0414 21.6185 27.0855 21.6185 27.1263C21.6524 28.9051 21.8595 30.1 22.1582 30.8434C22.4536 31.558 22.7727 31.7464 23.0561 31.7871C23.102 31.7905 23.1512 31.8007 23.1987 31.8007ZM37.0709 31.7871C37.1898 31.8024 37.2899 31.8024 37.3781 31.7871C37.6548 31.7464 37.9841 31.5614 38.276 30.8434C38.5798 30.1 38.7869 28.9051 38.8158 27.1263C38.8191 27.0855 38.8226 27.0414 38.831 26.9973C39.1417 25.2745 39.1162 24.1525 38.9159 23.4906C38.7343 22.9135 38.461 22.759 38.1216 22.7319C37.6667 22.6979 36.9521 22.9016 35.988 23.4719C35.0562 24.0269 33.9903 24.862 32.8599 25.9347L32.7444 26.0094L32.5747 28.7981L32.7071 28.8202C32.7987 28.8575 32.8853 28.9084 32.9668 28.9831C33.9699 29.9591 34.8712 30.7144 35.6554 31.2015C36.2613 31.5766 36.7281 31.7498 37.0709 31.7871ZM20.3099 29.8555L20.1809 28.9084C20.1469 28.569 20.1181 28.2058 20.1028 27.8256L20.0994 27.6813H11.3972L11.8046 28.8134L11.8606 28.9288L12.3189 29.8572H20.3099V29.8555ZM48 29.8555L48.2631 29.3311L48.3326 29.1749C48.5109 28.7421 48.6687 28.294 48.7994 27.8442L48.8368 27.6813H40.3383L40.3349 27.8256C40.3196 28.2058 40.2908 28.569 40.2534 28.9084L40.1278 29.8555H48ZM31.2542 28.9763L31.4392 25.8957H28.9051L29.0901 28.9763H31.2542ZM19.9331 26.1469L19.8669 25.5596C19.7922 24.5531 19.8516 23.7095 20.0587 23.0408C20.3947 21.9426 21.1466 21.2807 22.2007 21.2026C23.3701 21.1143 24.801 21.7797 26.2912 22.8524L27.3079 23.6705V14.8308L27.1382 14.6985C25.451 13.4968 23.4109 12.7907 21.2213 12.7907C15.4963 12.7907 10.7998 17.5907 10.7998 23.5636C10.7811 24.0151 10.7998 24.4615 10.8337 24.9095L11.0069 26.1486H19.9331V26.1469ZM49.161 26.1469L49.2984 25.0555C49.3273 24.5718 49.3358 24.083 49.3137 23.5873V23.5466C49.3137 17.589 44.6121 12.7873 38.8837 12.7873C37.0268 12.7873 35.2853 13.2897 33.7764 14.1672L32.9142 14.7324V23.8267L33.5133 23.3277C35.2259 21.9783 36.8944 21.0974 38.237 21.2009C39.2944 21.279 40.0413 21.9409 40.379 23.0391C40.6234 23.8233 40.6641 24.8332 40.5233 26.0722L40.5114 26.1469H49.161ZM28.8678 25.8617V25.8244L28.7201 25.8363L28.7014 25.8617H28.8678ZM31.7413 25.8617L31.726 25.8397L31.4816 25.8244V25.8617H31.7413ZM28.8457 24.5887L28.8678 24.5854H31.3798V16.0903L31.3391 16.131C31.2135 16.26 31.0794 16.3822 30.9215 16.4857C30.4378 16.7963 29.8895 16.8116 29.4058 16.5859L28.8474 16.1649V24.5887H28.8457ZM13.8482 22.1701C13.7294 22.1735 13.6071 22.1514 13.4934 22.1073C13.0351 21.929 12.806 21.4114 12.9825 20.9531C13.9517 18.4411 15.6303 16.3635 18.4598 15.0617C18.9113 14.8546 19.4476 15.0498 19.6547 15.5013C19.8584 15.9528 19.6581 16.4858 19.2151 16.6928C16.8524 17.7723 15.4759 19.4662 14.6544 21.5964C14.522 21.9409 14.1961 22.1565 13.8482 22.1701Z" fill="#333333"/>
</svg>
