<?xml version="1.0" encoding="UTF-8" standalone="no"?><svg width="60" height="60" viewBox="0 0 60 60" fill="none" xmlns="http://www.w3.org/2000/svg">
<path d="M25.7204 38.6724V51.0859L30.9521 48.8191L36.6246 51.3475V37.6792L25.7204 38.6724Z" fill="#FCD769"/>
<path d="M21.1927 14.0825C22.3781 13.9538 23.02 12.9882 23.5418 11.8215C23.7297 10.24 24.6174 10.0174 26.089 10.9383C27.2845 11.1869 28.5104 10.746 29.7681 9.53892C30.7395 8.4894 31.6705 8.95056 32.5827 10.1388C33.3807 11.0669 34.6138 11.0973 36.0637 10.6737C37.2867 10.016 38.2871 10.1229 38.6109 12.4663C39.0793 13.4883 39.7645 14.2111 41.0757 14.0391C42.6196 13.6589 43.8556 13.7471 43.2455 16.5646C42.5849 18.3152 43.4783 19.2491 45.1725 19.7594C46.6095 20.2524 47.3236 21.0272 45.5686 22.7301C44.603 23.9907 44.8241 25.2889 45.7913 26.6073C46.4013 27.4905 46.3825 28.2827 44.7952 28.8653C43.2325 29.5664 42.7006 30.8964 43.5347 33.0562C43.4783 34.4772 42.6384 34.8834 41.1798 34.496C39.9322 34.6651 39.1964 35.5715 38.7685 36.9102C38.4013 38.7866 37.5672 39.0916 36.3283 37.9944C34.8971 37.4479 33.6525 37.925 32.5176 39.0135C31.3135 40.6587 30.2538 40.2235 29.2823 38.5264L27.2411 37.9105C24.8226 39.2781 23.3582 38.5365 22.9216 35.5368C19.935 35.4776 17.7435 34.6435 18.8913 30.5755C16.0275 29.3424 15.0618 27.6582 17.184 25.2556C15.6242 22.7215 15.5779 20.5111 18.313 18.9137C17.8128 16.3868 17.8577 14.201 21.1927 14.0825Z" fill="#FAAB3F"/>
<path d="M20.1056 24.5082C20.1056 18.6535 24.8559 13.909 30.7078 13.909C36.5596 13.909 41.3099 18.6535 41.3099 24.5082C41.3099 30.3572 36.5596 35.1133 30.7078 35.1133C24.8559 35.1133 20.1056 30.3572 20.1056 24.5082Z" fill="#FCD769"/>
<path d="M24.0319 23.9083L29.9083 29.7847L37.3821 21.5997L35.1718 19.8259L29.8418 25.844L26.0254 21.9452L24.0319 23.9083Z" fill="#FAAB3F"/>
<path d="M25.0916 52.504C24.6738 52.4794 24.2994 52.1325 24.2994 51.6612V39.6785L24.1707 39.6814C23.3727 39.5932 22.7497 39.0815 22.4923 38.2286L22.3666 37.2889L22.2119 36.582L21.505 35.8621C21.1783 35.7016 20.7692 35.6322 20.3008 35.6987L20.1938 35.7089L19.5838 35.7378C18.8725 35.7161 18.2061 35.4862 17.7666 34.9644C17.4486 34.5928 17.317 34.1664 17.3113 33.7197L17.6322 32.4027L17.8057 31.6958L17.4789 30.7461C17.2592 30.4569 16.9166 30.2213 16.4627 30.0767C14.6166 29.4797 13.8505 27.8693 14.9433 26.4829L15.4334 25.9958L15.5057 25.9336C16.0088 25.5346 16.2169 24.9173 16.0464 24.2957L15.7471 23.6799L15.4392 23.3402L14.5877 22.1172C14.0875 20.8494 14.6701 19.57 16.3861 19.1927C16.5407 19.158 16.6853 19.0988 16.8169 19.0323L17.1653 18.7648L17.1783 18.7518L17.4298 18.3933C17.4992 18.2617 17.5498 18.1099 17.5773 17.9524L17.5744 17.27L17.4486 16.8234L17.2101 15.3546C17.2925 14.2227 18.0586 13.4088 19.2975 13.3987L20.081 13.4927L20.7952 13.5057L21.6539 12.9737C21.8837 12.6903 22.0442 12.3073 22.0818 11.836L22.2292 11.0409C22.6759 9.54758 23.9394 8.92452 25.2694 9.56349L25.9083 9.97259C26.6687 10.5884 27.779 10.4251 28.4237 9.34375C29.4139 7.67407 31.1588 7.28807 32.2633 8.66141L32.6781 9.31483C33.093 10.214 34.1657 10.5508 35.2181 9.84971L35.9062 9.48542C37.1393 8.98523 38.2958 9.33508 38.7989 10.3947L39.0504 11.6625L39.2008 12.3766L39.912 13.0966C40.2358 13.2541 40.6449 13.3163 41.1133 13.2599L41.2232 13.2469L41.8361 13.218C42.5474 13.2397 43.2095 13.4666 43.6504 13.9914C43.9641 14.3586 44.1028 14.7894 44.1057 15.2361L43.779 16.5501L43.6099 17.2643L43.9438 18.2169C44.1606 18.5032 44.5033 18.7388 44.9529 18.8805C46.8018 19.4804 47.5651 21.0937 46.4722 22.4743L45.9127 23.0149C45.1451 23.6279 45.0569 24.7468 45.9691 25.6127C47.5882 27.1537 47.3179 29.2658 45.0323 29.7659C44.4064 29.9047 43.9539 30.3702 43.8383 31.0048L43.8412 31.6929L43.9669 32.1295L44.2084 33.604C44.126 34.7331 43.3598 35.5469 42.118 35.5571L41.3388 35.4631L40.6189 35.4501L39.7631 35.985C39.5332 36.2654 39.3757 36.6456 39.3323 37.1227L39.1877 37.912C38.968 38.6637 38.5401 39.1942 37.9922 39.4559L37.508 39.6004L37.4978 51.6713C37.4978 52.2843 36.8531 52.6905 36.2994 52.4288L30.6991 49.8282L25.518 52.4187C25.3778 52.4852 25.2361 52.517 25.0916 52.504ZM35.8108 50.3471V39.1754L35.5087 38.9832C34.7439 38.3601 33.6351 38.5206 32.9962 39.6062C32.6189 40.2351 32.1057 40.7627 31.4768 41.0056L30.8509 41.1285H30.8133L30.1657 41.0374C29.7349 40.8827 29.3821 40.5907 29.0973 40.2264L28.7417 39.6294C28.3239 38.7389 27.2484 38.4035 26.1946 39.1017L25.9835 39.2217V50.3052L30.3102 48.1426C30.5401 48.0298 30.8104 48.0226 31.046 48.1325L35.8108 50.3471ZM30.7887 39.453C30.8711 39.4501 31.1848 39.3619 31.5462 38.749C32.6246 36.9261 34.8856 36.3117 36.5611 37.6677C37.0237 38.0421 37.2405 37.9539 37.2781 37.9351C37.3562 37.8975 37.5961 37.6836 37.6554 36.9694L37.7971 36.2249C38.1614 34.9297 39.1487 33.9857 40.3905 33.7688L40.9413 33.7934L41.0294 33.7833L41.1176 33.7992L41.7031 33.8151L42.0674 33.8715L42.3623 33.8238C42.4288 33.7992 42.4534 33.7616 42.4693 33.7486C42.4881 33.7269 42.5127 33.6662 42.5315 33.5693L42.5155 33.1545L42.3869 32.715L42.1325 31.2303C42.1729 29.7688 43.0909 28.4692 44.6695 28.1208C45.5976 27.917 45.4718 27.4674 44.8054 26.8342C43.4624 25.5549 43.2239 23.6047 44.3211 22.243L44.8647 21.7081C45.6352 21.0951 45.2131 20.7265 44.4368 20.4793C42.9145 19.995 41.9214 18.7128 41.9185 17.2816L42.2611 15.8418L42.3927 15.4862L42.4115 15.1913C42.3985 15.119 42.3768 15.0872 42.3681 15.0756C42.3117 15.0091 42.0501 14.8212 41.3374 14.9151L40.5698 14.9253C39.2369 14.8776 38.0949 14.1302 37.6135 12.9664L37.372 11.6842L37.3402 11.3199L37.2015 11.0062C37.0034 10.8053 36.6391 10.9209 36.1389 11.252L35.4624 11.6134C34.0544 12.1988 32.4873 11.8895 31.5534 10.7084L31.1516 10.0796C30.7497 9.19629 30.3059 9.46084 29.8693 10.2024C28.9167 11.7969 27.0735 12.4692 25.4963 11.7059L24.8487 11.2968C24.3861 10.9137 24.1693 11.0019 24.1346 11.0207C24.0565 11.0611 23.8194 11.2751 23.7544 11.9791L23.6156 12.7308C23.2484 14.0203 22.261 14.9701 21.0149 15.1826L20.4612 15.1638L20.3789 15.1696L20.2965 15.1595L19.7023 15.1349L19.3409 15.0814L19.0417 15.1291C18.9824 15.158 18.9535 15.1884 18.9448 15.2014C18.9043 15.2578 18.8219 15.4341 18.8913 15.8013L19.0229 16.2292L19.2744 17.7225C19.2339 19.1811 18.3217 20.4836 16.7431 20.832C16.3557 20.9173 16.1649 21.033 16.0984 21.1804L16.2112 21.6777L16.6073 22.1244L17.3994 23.1841C17.9849 24.3377 17.9155 25.6864 17.0886 26.7056L16.6174 27.1797L16.5422 27.2433C15.7746 27.8534 16.1967 28.2206 16.973 28.4721C18.4923 28.9564 19.4884 30.243 19.4912 31.6698L19.1457 33.1096L19.0099 33.4653L18.994 33.7645C19.007 33.831 19.0315 33.8657 19.0417 33.8773C19.1009 33.9438 19.3626 34.1317 20.0666 34.0348L20.84 34.0291C22.17 34.0797 23.312 34.8212 23.7919 35.9879L24.0334 37.2672L24.0681 37.6474L24.1779 37.9279C24.2184 37.9814 24.2603 37.9973 24.2748 38.0059C24.3572 38.0435 24.6709 38.0999 25.2708 37.7038L25.9474 37.3424C27.3467 36.7511 28.9181 37.0692 29.8491 38.2445L30.2481 38.8762C30.5155 39.4371 30.7482 39.453 30.7887 39.453ZM30.8277 36.1295C24.389 36.1295 19.1689 30.9109 19.1689 24.4735C19.1689 18.0377 24.3875 12.8147 30.8277 12.8147C37.2578 12.8147 42.4866 18.0377 42.4866 24.4735C42.4852 30.9094 37.2564 36.1295 30.8277 36.1295ZM30.8277 34.4497C36.3297 34.4497 40.801 29.9784 40.801 24.4735C40.801 18.9715 36.3297 14.4974 30.8277 14.4974C25.3185 14.4974 20.8516 18.9715 20.8516 24.4735C20.8501 29.9799 25.3185 34.4497 30.8277 34.4497ZM29.9286 30.6709C29.6958 30.6767 29.4602 30.5885 29.2809 30.4136L23.4045 24.5343C23.059 24.1888 23.059 23.625 23.4103 23.2766L25.4038 21.312C25.7493 20.9694 26.3131 20.9752 26.6586 21.325L29.8129 24.5444L34.5069 19.2433C34.8206 18.8877 35.3554 18.8443 35.7269 19.1363L37.9373 20.9072C38.3392 21.2281 38.3768 21.8194 38.0385 22.1996L30.5618 30.3875C30.3926 30.5697 30.1599 30.668 29.9286 30.6709ZM29.8809 28.5039L36.0912 21.6994L35.2773 21.046L30.5083 26.4323C30.1628 26.8154 29.5715 26.8342 29.2101 26.4641L26.0153 23.1971L25.2896 23.9112L29.8809 28.5039Z" fill="#4D3F2D"/>
</svg>
