<?xml version="1.0" encoding="UTF-8" standalone="no"?><svg width="60" height="60" viewBox="0 0 60 60" fill="none" xmlns="http://www.w3.org/2000/svg">
<path d="M21.7864 27.3061L31.2604 32.7754L40.7345 27.3061V16.3677L31.2604 10.8985L21.7864 16.3645V27.3061Z" fill="#FFDA6A"/>
<path d="M12.7298 43.8303L22.2006 49.2995L31.6715 43.8335V32.8919L22.2006 27.4194L12.7298 32.8919V43.8303Z" fill="#FFDA6A"/>
<path d="M31.3413 43.8303L40.8186 49.2995L50.2894 43.8335V32.8919L40.8186 27.4194L31.3413 32.8919V43.8303Z" fill="#FAAB3F"/>
<path d="M12.3332 17.701C10.3349 21.4987 8.64555 25.1411 12.5792 26.0553C15.9368 25.1589 15.8559 22.3725 12.3332 17.701Z" fill="#FAAB3F"/>
<path d="M22.0986 50.196C21.9255 50.196 21.7572 50.1539 21.6019 50.0617L12.1278 44.5925C11.822 44.4128 11.6311 44.086 11.6311 43.7268V32.7883C11.6311 32.4323 11.8204 32.1055 12.131 31.9291L21.186 26.6993V16.5036L21.1083 16.5279C21.063 16.5344 21.0129 16.5344 20.9643 16.5311C20.8203 16.5198 20.6763 16.4826 20.542 16.4081L14.4223 12.9729C13.9401 12.7059 13.7718 12.0959 14.0388 11.6185C14.3058 11.1363 14.9158 10.9713 15.3932 11.2383L21.5161 14.6703C21.7556 14.8046 21.9142 15.0263 21.9837 15.269L21.9983 15.4211L31.1601 10.1347C31.4659 9.9551 31.8462 9.9551 32.1568 10.1347L41.1811 15.3467L41.3882 15.167L47.5079 11.735C47.9901 11.468 48.5953 11.6396 48.8671 12.1185C49.1341 12.5975 48.9626 13.2027 48.4836 13.4696L42.3639 16.9049L42.1244 16.9745V26.7625L51.0742 31.9291C51.38 32.1055 51.5742 32.4323 51.5742 32.7915V43.7332C51.5742 44.0844 51.38 44.4128 51.0742 44.5925L41.6001 50.0617C41.4448 50.1539 41.2733 50.196 41.1002 50.196C40.927 50.196 40.7587 50.1539 40.6034 50.0617L31.6002 44.8675L22.5938 50.0617C22.4433 50.1539 22.2718 50.196 22.0986 50.196ZM22.0986 48.0487L30.5808 43.1572V33.4048L22.0711 28.489L13.6246 33.3676V43.1588L22.0986 48.0487ZM41.1034 48.0487L49.5775 43.1572V33.366L41.1875 28.523L32.6245 33.4679V43.1572L41.1034 48.0487ZM16.4644 36.942C16.411 36.942 16.3689 36.942 16.3203 36.9388C16 36.9113 15.7006 36.7349 15.5323 36.4355C15.2653 35.9533 15.4369 35.3482 15.9158 35.0812L22.0355 31.6459C22.5177 31.3789 23.1229 31.5472 23.3899 32.0262C23.6601 32.5084 23.4918 33.1136 23.0096 33.3805L16.8899 36.8158C16.754 36.8935 16.6084 36.9323 16.4644 36.942ZM35.4659 36.942C35.4173 36.942 35.3672 36.942 35.3219 36.9388C35.0047 36.9113 34.7021 36.7349 34.5371 36.4355C34.2701 35.9533 34.4384 35.3482 34.9206 35.0812L41.037 31.6459C41.5192 31.3789 42.1244 31.5472 42.3963 32.0262C42.6633 32.5084 42.495 33.1136 42.0128 33.3805L35.8931 36.8158C35.7539 36.8935 35.6099 36.9323 35.4659 36.942ZM31.5986 31.6589L40.1374 26.7285V17.0392L31.6585 12.1444L23.1844 17.0392L23.1812 26.7948L31.5986 31.6589ZM12.576 27.0877C10.6019 27.0877 9 25.4858 9 23.5117C9 21.7981 9.78478 19.1864 11.9498 17.0246H13.2022C15.4433 19.2706 16.1521 21.7997 16.1521 23.5117C16.1521 25.4858 14.5501 27.0877 12.576 27.0877ZM12.576 25.3142C13.5679 25.3142 14.3738 24.5052 14.3738 23.5117C14.3738 22.4097 13.9692 20.6848 12.5793 19.0004C11.2346 20.6298 10.7734 22.4178 10.7734 23.5117C10.7734 24.5052 11.5825 25.3142 12.576 25.3142ZM26.0193 20.6152C25.9708 20.6185 25.9239 20.6185 25.8753 20.6152C25.5582 20.5829 25.2556 20.4081 25.0905 20.1088C24.8235 19.6298 24.9918 19.0246 25.4708 18.7544L31.5937 15.3224C32.0695 15.0522 32.6779 15.2204 32.9481 15.7026C33.2151 16.1816 33.0436 16.7868 32.5646 17.057L26.4449 20.489C26.309 20.5667 26.1633 20.6088 26.0193 20.6152Z" fill="#4D3F2D"/>
</svg>
