<?xml version="1.0" encoding="UTF-8" standalone="no"?><svg width="230" height="60" viewBox="0 0 230 60" fill="none" xmlns="http://www.w3.org/2000/svg">
<path d="M60.672 32V31.76H62.424C62.648 31.76 62.848 31.728 63.024 31.664C63.216 31.6 63.368 31.464 63.48 31.256C63.592 31.048 63.648 30.736 63.648 30.32V16.568C63.648 16.136 63.592 15.816 63.48 15.608C63.368 15.4 63.216 15.264 63.024 15.2C62.848 15.136 62.648 15.104 62.424 15.104H60.672V14.864H67.224L72.192 27.944L76.272 14.864H82.176V15.104H81.168C80.944 15.104 80.736 15.144 80.544 15.224C80.352 15.288 80.2 15.432 80.088 15.656C79.992 15.864 79.944 16.2 79.944 16.664V30.2C79.944 30.648 79.992 30.984 80.088 31.208C80.2 31.432 80.352 31.584 80.544 31.664C80.736 31.728 80.944 31.76 81.168 31.76H82.176V32H74.496V31.76H74.736C75.072 31.76 75.352 31.728 75.576 31.664C75.8 31.6 75.968 31.472 76.08 31.28C76.192 31.088 76.248 30.8 76.248 30.416V15.752L71.16 32H70.008L63.888 15.872V30.2C63.888 30.648 63.952 30.984 64.08 31.208C64.224 31.432 64.432 31.584 64.704 31.664C64.976 31.728 65.296 31.76 65.664 31.76H66.624V32H60.672ZM82.0596 32V31.76H82.3476C82.5876 31.76 82.8356 31.728 83.0916 31.664C83.3636 31.584 83.5876 31.432 83.7636 31.208C83.9556 30.984 84.0516 30.648 84.0516 30.2V20.84C84.0516 20.408 83.9556 20.088 83.7636 19.88C83.5716 19.672 83.3396 19.536 83.0676 19.472C82.8116 19.408 82.5716 19.376 82.3476 19.376H82.0596V19.136H87.6996V30.2C87.6996 30.648 87.7876 30.984 87.9636 31.208C88.1556 31.432 88.3876 31.584 88.6596 31.664C88.9316 31.728 89.1796 31.76 89.4036 31.76H89.6916V32H82.0596ZM85.7556 16.976C85.2916 16.976 84.8916 16.84 84.5556 16.568C84.2356 16.28 84.0756 15.84 84.0756 15.248C84.0756 14.64 84.2436 14.2 84.5796 13.928C84.9156 13.656 85.3156 13.52 85.7796 13.52C86.2276 13.52 86.6196 13.656 86.9556 13.928C87.2916 14.2 87.4596 14.64 87.4596 15.248C87.4596 15.84 87.2916 16.28 86.9556 16.568C86.6196 16.84 86.2196 16.976 85.7556 16.976ZM96.3531 32.24C94.2731 32.24 92.6971 31.664 91.6251 30.512C90.5531 29.344 90.0171 27.72 90.0171 25.64C90.0171 23.384 90.5371 21.688 91.5771 20.552C92.6171 19.4 94.0811 18.824 95.9691 18.824C97.7131 18.824 99.0811 19.312 100.073 20.288C101.081 21.264 101.585 22.704 101.585 24.608V25.184H93.7131C93.7131 26.8 93.8171 28.112 94.0251 29.12C94.2491 30.112 94.5931 30.84 95.0571 31.304C95.5371 31.752 96.1531 31.976 96.9051 31.976C97.4651 31.976 97.9691 31.856 98.4171 31.616C98.8811 31.376 99.2651 30.992 99.5691 30.464C99.8891 29.936 100.097 29.232 100.193 28.352C100.513 28.416 100.737 28.552 100.865 28.76C101.009 28.968 101.081 29.208 101.081 29.48C101.081 29.928 100.905 30.368 100.553 30.8C100.201 31.216 99.6731 31.56 98.9691 31.832C98.2811 32.104 97.4091 32.24 96.3531 32.24ZM97.9371 24.944C97.9371 23.488 97.8811 22.336 97.7691 21.488C97.6571 20.624 97.4571 20.008 97.1691 19.64C96.8811 19.256 96.4811 19.064 95.9691 19.064C95.4571 19.064 95.0331 19.256 94.6971 19.64C94.3611 20.008 94.1131 20.624 93.9531 21.488C93.8091 22.336 93.7291 23.488 93.7131 24.944H97.9371ZM101.88 32V31.76H102.096C102.336 31.76 102.584 31.728 102.84 31.664C103.112 31.584 103.336 31.432 103.512 31.208C103.704 30.984 103.8 30.648 103.8 30.2V20.84C103.8 20.408 103.704 20.088 103.512 19.88C103.32 19.672 103.088 19.536 102.816 19.472C102.56 19.408 102.32 19.376 102.096 19.376H102V19.136H107.448V21.2H107.496C107.672 20.672 107.904 20.24 108.192 19.904C108.48 19.552 108.84 19.288 109.272 19.112C109.72 18.936 110.24 18.848 110.832 18.848C111.728 18.848 112.408 19.032 112.872 19.4C113.352 19.768 113.592 20.28 113.592 20.936C113.592 21.624 113.32 22.16 112.776 22.544C112.232 22.928 111.488 23.12 110.544 23.12C110.544 22.304 110.488 21.664 110.376 21.2C110.264 20.736 110.104 20.408 109.896 20.216C109.704 20.024 109.456 19.928 109.152 19.928C108.912 19.928 108.688 19.992 108.48 20.12C108.272 20.248 108.088 20.464 107.928 20.768C107.784 21.056 107.664 21.448 107.568 21.944C107.488 22.424 107.448 23.032 107.448 23.768V30.2C107.448 30.648 107.536 30.984 107.712 31.208C107.904 31.432 108.136 31.584 108.408 31.664C108.68 31.728 108.928 31.76 109.152 31.76H109.896V32H101.88ZM120.227 32.24C118.147 32.24 116.571 31.664 115.499 30.512C114.427 29.344 113.891 27.72 113.891 25.64C113.891 23.384 114.411 21.688 115.451 20.552C116.491 19.4 117.955 18.824 119.843 18.824C121.587 18.824 122.955 19.312 123.947 20.288C124.955 21.264 125.459 22.704 125.459 24.608V25.184H117.587C117.587 26.8 117.691 28.112 117.899 29.12C118.123 30.112 118.467 30.84 118.931 31.304C119.411 31.752 120.027 31.976 120.779 31.976C121.339 31.976 121.843 31.856 122.291 31.616C122.755 31.376 123.139 30.992 123.443 30.464C123.763 29.936 123.971 29.232 124.067 28.352C124.387 28.416 124.611 28.552 124.739 28.76C124.883 28.968 124.955 29.208 124.955 29.48C124.955 29.928 124.779 30.368 124.427 30.8C124.075 31.216 123.547 31.56 122.843 31.832C122.155 32.104 121.283 32.24 120.227 32.24ZM121.811 24.944C121.811 23.488 121.755 22.336 121.643 21.488C121.531 20.624 121.331 20.008 121.043 19.64C120.755 19.256 120.355 19.064 119.843 19.064C119.331 19.064 118.907 19.256 118.571 19.64C118.235 20.008 117.987 20.624 117.827 21.488C117.683 22.336 117.603 23.488 117.587 24.944H121.811ZM130.136 32V31.76H131.624C131.848 31.76 132.048 31.728 132.224 31.664C132.416 31.584 132.568 31.432 132.68 31.208C132.792 30.984 132.848 30.648 132.848 30.2V16.568C132.848 16.136 132.792 15.816 132.68 15.608C132.568 15.4 132.416 15.264 132.224 15.2C132.048 15.136 131.848 15.104 131.624 15.104H130.136V14.864H136.232L144.728 27.8V16.568C144.728 16.136 144.672 15.816 144.56 15.608C144.448 15.4 144.296 15.264 144.104 15.2C143.928 15.136 143.728 15.104 143.504 15.104H141.704V14.864H147.968V15.104H146.192C145.968 15.104 145.76 15.144 145.568 15.224C145.392 15.288 145.248 15.432 145.136 15.656C145.024 15.864 144.968 16.2 144.968 16.664V32H143.528L133.088 16.112V30.2C133.088 30.648 133.144 30.984 133.256 31.208C133.368 31.432 133.512 31.584 133.688 31.664C133.88 31.728 134.088 31.76 134.312 31.76H136.4V32H130.136ZM152.098 32.24C151.298 32.24 150.61 32.088 150.034 31.784C149.458 31.48 149.018 31.048 148.714 30.488C148.41 29.912 148.258 29.248 148.258 28.496C148.258 27.264 148.706 26.376 149.602 25.832C150.498 25.288 151.842 24.984 153.634 24.92L155.602 24.848V21.8C155.602 21.096 155.554 20.552 155.458 20.168C155.362 19.768 155.21 19.488 155.002 19.328C154.794 19.152 154.506 19.064 154.138 19.064C153.722 19.064 153.394 19.184 153.154 19.424C152.914 19.648 152.746 20.04 152.65 20.6C152.554 21.144 152.506 21.904 152.506 22.88C151.434 22.88 150.626 22.76 150.082 22.52C149.538 22.264 149.266 21.84 149.266 21.248C149.266 20.672 149.49 20.208 149.938 19.856C150.386 19.488 150.986 19.224 151.738 19.064C152.49 18.904 153.314 18.824 154.21 18.824C155.89 18.824 157.146 19.128 157.978 19.736C158.826 20.344 159.25 21.4 159.25 22.904V30.056C159.25 30.488 159.29 30.832 159.37 31.088C159.466 31.328 159.618 31.504 159.826 31.616C160.05 31.712 160.338 31.76 160.69 31.76H160.786V32H155.65V29.576H155.602C155.394 30.264 155.114 30.8 154.762 31.184C154.41 31.568 154.002 31.84 153.538 32C153.09 32.16 152.61 32.24 152.098 32.24ZM153.322 31.568C153.786 31.568 154.186 31.392 154.522 31.04C154.874 30.688 155.138 30.232 155.314 29.672C155.506 29.112 155.602 28.52 155.602 27.896V25.088L154.522 25.136C153.882 25.168 153.378 25.304 153.01 25.544C152.642 25.768 152.378 26.12 152.218 26.6C152.058 27.064 151.978 27.672 151.978 28.424C151.978 29.192 152.026 29.808 152.122 30.272C152.218 30.736 152.362 31.072 152.554 31.28C152.762 31.472 153.018 31.568 153.322 31.568ZM166.177 32.24C165.105 32.24 164.249 31.96 163.609 31.4C162.969 30.84 162.649 29.856 162.649 28.448V19.376H160.849V19.136C161.633 19.136 162.321 19.056 162.913 18.896C163.505 18.736 164.017 18.48 164.449 18.128C164.849 17.808 165.177 17.408 165.433 16.928C165.705 16.432 165.913 15.856 166.057 15.2H166.297V19.136H169.369V19.376H166.297V29.528C166.297 30.28 166.441 30.832 166.729 31.184C167.017 31.536 167.441 31.712 168.001 31.712C168.225 31.712 168.465 31.688 168.721 31.64C168.993 31.592 169.281 31.512 169.585 31.4V31.64C169.329 31.752 168.905 31.88 168.313 32.024C167.737 32.168 167.025 32.24 166.177 32.24ZM175.352 32.24C173.944 32.24 172.896 31.872 172.208 31.136C171.52 30.4 171.176 29.224 171.176 27.608V21.08C171.176 20.584 171.112 20.216 170.984 19.976C170.872 19.736 170.696 19.576 170.456 19.496C170.232 19.416 169.936 19.376 169.568 19.376H169.496V19.136H174.824V28.4C174.824 29.088 174.88 29.664 174.992 30.128C175.12 30.592 175.312 30.944 175.568 31.184C175.84 31.408 176.192 31.52 176.624 31.52C177.2 31.52 177.648 31.328 177.968 30.944C178.288 30.56 178.512 30.024 178.64 29.336C178.768 28.648 178.832 27.856 178.832 26.96V20.936C178.832 20.472 178.736 20.136 178.544 19.928C178.368 19.704 178.144 19.56 177.872 19.496C177.616 19.416 177.368 19.376 177.128 19.376H177.032V19.136H182.48V30.296C182.48 30.712 182.576 31.032 182.768 31.256C182.96 31.464 183.184 31.6 183.44 31.664C183.712 31.728 183.96 31.76 184.184 31.76H184.28V32H178.832V29.744H178.784C178.64 30.272 178.448 30.704 178.208 31.04C177.968 31.376 177.696 31.632 177.392 31.808C177.088 31.968 176.76 32.08 176.408 32.144C176.056 32.208 175.704 32.24 175.352 32.24ZM184.16 32V31.76H184.376C184.616 31.76 184.864 31.728 185.12 31.664C185.392 31.584 185.616 31.432 185.792 31.208C185.984 30.984 186.08 30.648 186.08 30.2V20.84C186.08 20.408 185.984 20.088 185.792 19.88C185.6 19.672 185.368 19.536 185.096 19.472C184.84 19.408 184.6 19.376 184.376 19.376H184.28V19.136H189.728V21.2H189.776C189.952 20.672 190.184 20.24 190.472 19.904C190.76 19.552 191.12 19.288 191.552 19.112C192 18.936 192.52 18.848 193.112 18.848C194.008 18.848 194.688 19.032 195.152 19.4C195.632 19.768 195.872 20.28 195.872 20.936C195.872 21.624 195.6 22.16 195.056 22.544C194.512 22.928 193.768 23.12 192.824 23.12C192.824 22.304 192.768 21.664 192.656 21.2C192.544 20.736 192.384 20.408 192.176 20.216C191.984 20.024 191.736 19.928 191.432 19.928C191.192 19.928 190.968 19.992 190.76 20.12C190.552 20.248 190.368 20.464 190.208 20.768C190.064 21.056 189.944 21.448 189.848 21.944C189.768 22.424 189.728 23.032 189.728 23.768V30.2C189.728 30.648 189.816 30.984 189.992 31.208C190.184 31.432 190.416 31.584 190.688 31.664C190.96 31.728 191.208 31.76 191.432 31.76H192.176V32H184.16ZM199.493 32.24C198.693 32.24 198.005 32.088 197.429 31.784C196.853 31.48 196.413 31.048 196.109 30.488C195.805 29.912 195.653 29.248 195.653 28.496C195.653 27.264 196.101 26.376 196.997 25.832C197.893 25.288 199.237 24.984 201.029 24.92L202.997 24.848V21.8C202.997 21.096 202.949 20.552 202.853 20.168C202.757 19.768 202.605 19.488 202.397 19.328C202.189 19.152 201.901 19.064 201.533 19.064C201.117 19.064 200.789 19.184 200.549 19.424C200.309 19.648 200.141 20.04 200.045 20.6C199.949 21.144 199.901 21.904 199.901 22.88C198.829 22.88 198.021 22.76 197.477 22.52C196.933 22.264 196.661 21.84 196.661 21.248C196.661 20.672 196.885 20.208 197.333 19.856C197.781 19.488 198.381 19.224 199.133 19.064C199.885 18.904 200.709 18.824 201.605 18.824C203.285 18.824 204.541 19.128 205.373 19.736C206.221 20.344 206.645 21.4 206.645 22.904V30.056C206.645 30.488 206.685 30.832 206.765 31.088C206.861 31.328 207.013 31.504 207.221 31.616C207.445 31.712 207.733 31.76 208.085 31.76H208.181V32H203.045V29.576H202.997C202.789 30.264 202.509 30.8 202.157 31.184C201.805 31.568 201.397 31.84 200.933 32C200.485 32.16 200.005 32.24 199.493 32.24ZM200.717 31.568C201.181 31.568 201.581 31.392 201.917 31.04C202.269 30.688 202.533 30.232 202.709 29.672C202.901 29.112 202.997 28.52 202.997 27.896V25.088L201.917 25.136C201.277 25.168 200.773 25.304 200.405 25.544C200.037 25.768 199.773 26.12 199.613 26.6C199.453 27.064 199.373 27.672 199.373 28.424C199.373 29.192 199.421 29.808 199.517 30.272C199.613 30.736 199.757 31.072 199.949 31.28C200.157 31.472 200.413 31.568 200.717 31.568ZM208.149 32V31.76H208.437C208.677 31.76 208.925 31.728 209.181 31.664C209.453 31.584 209.677 31.432 209.853 31.208C210.045 30.984 210.141 30.648 210.141 30.2V15.464C210.141 15.032 210.045 14.712 209.853 14.504C209.661 14.296 209.429 14.16 209.157 14.096C208.901 14.032 208.661 14 208.437 14H208.149V13.76H213.789V30.2C213.789 30.648 213.877 30.984 214.053 31.208C214.245 31.432 214.477 31.584 214.749 31.664C215.021 31.728 215.269 31.76 215.493 31.76H215.781V32H208.149ZM219.898 32.24C219.098 32.24 218.41 32.088 217.834 31.784C217.258 31.48 216.818 31.048 216.514 30.488C216.21 29.912 216.058 29.248 216.058 28.496C216.058 27.264 216.506 26.376 217.402 25.832C218.298 25.288 219.642 24.984 221.434 24.92L223.402 24.848V21.8C223.402 21.096 223.354 20.552 223.258 20.168C223.162 19.768 223.01 19.488 222.802 19.328C222.594 19.152 222.306 19.064 221.938 19.064C221.522 19.064 221.194 19.184 220.954 19.424C220.714 19.648 220.546 20.04 220.45 20.6C220.354 21.144 220.306 21.904 220.306 22.88C219.234 22.88 218.426 22.76 217.882 22.52C217.338 22.264 217.066 21.84 217.066 21.248C217.066 20.672 217.29 20.208 217.738 19.856C218.186 19.488 218.786 19.224 219.538 19.064C220.29 18.904 221.114 18.824 222.01 18.824C223.69 18.824 224.946 19.128 225.778 19.736C226.626 20.344 227.05 21.4 227.05 22.904V30.056C227.05 30.488 227.09 30.832 227.17 31.088C227.266 31.328 227.418 31.504 227.626 31.616C227.85 31.712 228.138 31.76 228.49 31.76H228.586V32H223.45V29.576H223.402C223.194 30.264 222.914 30.8 222.562 31.184C222.21 31.568 221.802 31.84 221.338 32C220.89 32.16 220.41 32.24 219.898 32.24ZM221.122 31.568C221.586 31.568 221.986 31.392 222.322 31.04C222.674 30.688 222.938 30.232 223.114 29.672C223.306 29.112 223.402 28.52 223.402 27.896V25.088L222.322 25.136C221.682 25.168 221.178 25.304 220.81 25.544C220.442 25.768 220.178 26.12 220.018 26.6C219.858 27.064 219.778 27.672 219.778 28.424C219.778 29.192 219.826 29.808 219.922 30.272C220.018 30.736 220.162 31.072 220.354 31.28C220.562 31.472 220.818 31.568 221.122 31.568Z" fill="white"/>
<path d="M64.332 42.6C64.78 42.6 65.176 42.704 65.52 42.912C65.864 43.112 66.136 43.392 66.336 43.752C66.536 44.112 66.636 44.524 66.636 44.988C66.636 45.452 66.536 45.872 66.336 46.248C66.136 46.616 65.864 46.908 65.52 47.124C65.176 47.34 64.78 47.448 64.332 47.448H61.788L61.848 47.328V50.64C61.848 50.736 61.812 50.82 61.74 50.892C61.668 50.964 61.584 51 61.488 51C61.376 51 61.288 50.964 61.224 50.892C61.16 50.82 61.128 50.736 61.128 50.64V42.96C61.128 42.864 61.164 42.78 61.236 42.708C61.308 42.636 61.392 42.6 61.488 42.6H64.332ZM64.332 46.752C64.644 46.752 64.916 46.676 65.148 46.524C65.38 46.364 65.56 46.152 65.688 45.888C65.824 45.616 65.892 45.316 65.892 44.988C65.892 44.66 65.824 44.372 65.688 44.124C65.56 43.868 65.38 43.668 65.148 43.524C64.916 43.38 64.644 43.308 64.332 43.308H61.788L61.848 43.2V46.824L61.776 46.752H64.332ZM67.8564 51C67.7444 51 67.6564 50.964 67.5924 50.892C67.5284 50.82 67.4964 50.736 67.4964 50.64V45.264C67.4964 45.168 67.5284 45.084 67.5924 45.012C67.6644 44.94 67.7524 44.904 67.8564 44.904C67.9604 44.904 68.0444 44.94 68.1084 45.012C68.1804 45.084 68.2164 45.168 68.2164 45.264V47.064L68.0364 47.1C68.0604 46.82 68.1284 46.544 68.2404 46.272C68.3604 45.992 68.5204 45.736 68.7204 45.504C68.9204 45.272 69.1564 45.084 69.4284 44.94C69.7084 44.796 70.0204 44.724 70.3644 44.724C70.5084 44.724 70.6484 44.756 70.7844 44.82C70.9204 44.876 70.9884 44.972 70.9884 45.108C70.9884 45.228 70.9564 45.32 70.8924 45.384C70.8284 45.448 70.7524 45.48 70.6644 45.48C70.5924 45.48 70.5124 45.46 70.4244 45.42C70.3444 45.38 70.2364 45.36 70.1004 45.36C69.8764 45.36 69.6524 45.428 69.4284 45.564C69.2044 45.692 69.0004 45.868 68.8164 46.092C68.6324 46.316 68.4844 46.568 68.3724 46.848C68.2684 47.12 68.2164 47.396 68.2164 47.676V50.64C68.2164 50.736 68.1804 50.82 68.1084 50.892C68.0364 50.964 67.9524 51 67.8564 51ZM74.0161 51.12C73.4001 51.12 72.8561 50.988 72.3841 50.724C71.9121 50.46 71.5441 50.092 71.2801 49.62C71.0161 49.148 70.8841 48.596 70.8841 47.964C70.8841 47.284 71.0161 46.704 71.2801 46.224C71.5521 45.744 71.9001 45.376 72.3241 45.12C72.7561 44.856 73.2121 44.724 73.6921 44.724C74.0441 44.724 74.3841 44.788 74.7121 44.916C75.0481 45.036 75.3441 45.22 75.6001 45.468C75.8641 45.708 76.0721 46.004 76.2241 46.356C76.3841 46.708 76.4721 47.116 76.4881 47.58C76.4801 47.676 76.4401 47.76 76.3681 47.832C76.2961 47.896 76.2121 47.928 76.1161 47.928H71.3041L71.1601 47.28H75.8881L75.7321 47.424V47.184C75.7001 46.808 75.5801 46.488 75.3721 46.224C75.1641 45.96 74.9121 45.76 74.6161 45.624C74.3201 45.488 74.0121 45.42 73.6921 45.42C73.4521 45.42 73.2041 45.468 72.9481 45.564C72.7001 45.66 72.4721 45.812 72.2641 46.02C72.0641 46.22 71.9001 46.48 71.7721 46.8C71.6441 47.112 71.5801 47.484 71.5801 47.916C71.5801 48.388 71.6761 48.816 71.8681 49.2C72.0601 49.584 72.3361 49.888 72.6961 50.112C73.0641 50.336 73.5001 50.448 74.0041 50.448C74.2841 50.448 74.5361 50.408 74.7601 50.328C74.9841 50.248 75.1801 50.144 75.3481 50.016C75.5161 49.88 75.6561 49.74 75.7681 49.596C75.8561 49.524 75.9441 49.488 76.0321 49.488C76.1121 49.488 76.1801 49.52 76.2361 49.584C76.3001 49.648 76.3321 49.72 76.3321 49.8C76.3321 49.896 76.2921 49.98 76.2121 50.052C75.9721 50.34 75.6601 50.592 75.2761 50.808C74.8921 51.016 74.4721 51.12 74.0161 51.12ZM80.1893 44.82C80.6853 44.82 81.1093 44.952 81.4613 45.216C81.8133 45.472 82.0533 45.856 82.1813 46.368L82.0133 46.416L82.0853 46.2C82.1893 45.96 82.3613 45.736 82.6013 45.528C82.8493 45.312 83.1293 45.14 83.4413 45.012C83.7533 44.884 84.0693 44.82 84.3893 44.82C84.8933 44.82 85.2973 44.928 85.6013 45.144C85.9133 45.36 86.1373 45.652 86.2733 46.02C86.4173 46.38 86.4893 46.788 86.4893 47.244V50.64C86.4893 50.736 86.4533 50.82 86.3813 50.892C86.3173 50.964 86.2333 51 86.1293 51C86.0253 51 85.9373 50.964 85.8653 50.892C85.8013 50.82 85.7693 50.736 85.7693 50.64V47.28C85.7693 46.952 85.7173 46.652 85.6133 46.38C85.5093 46.108 85.3453 45.892 85.1213 45.732C84.8973 45.572 84.5973 45.492 84.2213 45.492C83.8933 45.492 83.5773 45.572 83.2733 45.732C82.9773 45.892 82.7333 46.108 82.5413 46.38C82.3573 46.652 82.2653 46.952 82.2653 47.28V50.64C82.2653 50.736 82.2293 50.82 82.1573 50.892C82.0933 50.964 82.0093 51 81.9053 51C81.8013 51 81.7133 50.964 81.6413 50.892C81.5773 50.82 81.5453 50.736 81.5453 50.64V47.244C81.5453 46.916 81.4973 46.62 81.4013 46.356C81.3053 46.092 81.1493 45.884 80.9333 45.732C80.7173 45.572 80.4253 45.492 80.0573 45.492C79.7293 45.492 79.4173 45.572 79.1213 45.732C78.8333 45.884 78.5973 46.092 78.4133 46.356C78.2373 46.62 78.1493 46.916 78.1493 47.244V50.64C78.1493 50.736 78.1133 50.82 78.0413 50.892C77.9693 50.964 77.8853 51 77.7893 51C77.6773 51 77.5893 50.964 77.5253 50.892C77.4613 50.82 77.4293 50.736 77.4293 50.64V45.264C77.4293 45.168 77.4613 45.084 77.5253 45.012C77.5973 44.94 77.6853 44.904 77.7893 44.904C77.8933 44.904 77.9773 44.94 78.0413 45.012C78.1133 45.084 78.1493 45.168 78.1493 45.264V46.38L77.8253 46.824C77.8493 46.584 77.9253 46.344 78.0533 46.104C78.1893 45.864 78.3653 45.648 78.5813 45.456C78.7973 45.264 79.0413 45.112 79.3133 45C79.5933 44.88 79.8853 44.82 80.1893 44.82ZM88.4706 50.64C88.4706 50.736 88.4346 50.82 88.3626 50.892C88.2906 50.964 88.2066 51 88.1106 51C88.0066 51 87.9186 50.964 87.8466 50.892C87.7826 50.82 87.7506 50.736 87.7506 50.64V45.12C87.7506 45.024 87.7826 44.94 87.8466 44.868C87.9186 44.796 88.0066 44.76 88.1106 44.76C88.2146 44.76 88.2986 44.796 88.3626 44.868C88.4346 44.94 88.4706 45.024 88.4706 45.12V50.64ZM88.1106 43.956C87.9426 43.956 87.8146 43.92 87.7266 43.848C87.6466 43.768 87.6066 43.656 87.6066 43.512V43.392C87.6066 43.248 87.6506 43.14 87.7386 43.068C87.8346 42.988 87.9626 42.948 88.1226 42.948C88.2746 42.948 88.3906 42.988 88.4706 43.068C88.5586 43.14 88.6026 43.248 88.6026 43.392V43.512C88.6026 43.656 88.5586 43.768 88.4706 43.848C88.3906 43.92 88.2706 43.956 88.1106 43.956ZM94.325 44.904C94.429 44.904 94.513 44.94 94.577 45.012C94.649 45.084 94.685 45.168 94.685 45.264V48.648C94.685 49.44 94.461 50.044 94.013 50.46C93.565 50.876 92.961 51.084 92.201 51.084C91.449 51.084 90.849 50.876 90.401 50.46C89.961 50.044 89.741 49.44 89.741 48.648V45.264C89.741 45.168 89.773 45.084 89.837 45.012C89.909 44.94 89.997 44.904 90.101 44.904C90.205 44.904 90.289 44.94 90.353 45.012C90.425 45.084 90.461 45.168 90.461 45.264V48.648C90.461 49.224 90.613 49.664 90.917 49.968C91.229 50.264 91.657 50.412 92.201 50.412C92.753 50.412 93.185 50.264 93.497 49.968C93.809 49.664 93.965 49.224 93.965 48.648V45.264C93.965 45.168 93.997 45.084 94.061 45.012C94.125 44.94 94.213 44.904 94.325 44.904ZM98.733 44.82C99.229 44.82 99.653 44.952 100.005 45.216C100.357 45.472 100.597 45.856 100.725 46.368L100.557 46.416L100.629 46.2C100.733 45.96 100.905 45.736 101.145 45.528C101.393 45.312 101.673 45.14 101.985 45.012C102.297 44.884 102.613 44.82 102.933 44.82C103.437 44.82 103.841 44.928 104.145 45.144C104.457 45.36 104.681 45.652 104.817 46.02C104.961 46.38 105.033 46.788 105.033 47.244V50.64C105.033 50.736 104.997 50.82 104.925 50.892C104.861 50.964 104.777 51 104.673 51C104.569 51 104.481 50.964 104.409 50.892C104.345 50.82 104.313 50.736 104.313 50.64V47.28C104.313 46.952 104.261 46.652 104.157 46.38C104.053 46.108 103.889 45.892 103.665 45.732C103.441 45.572 103.141 45.492 102.765 45.492C102.437 45.492 102.121 45.572 101.817 45.732C101.521 45.892 101.277 46.108 101.085 46.38C100.901 46.652 100.809 46.952 100.809 47.28V50.64C100.809 50.736 100.773 50.82 100.701 50.892C100.637 50.964 100.553 51 100.449 51C100.345 51 100.257 50.964 100.185 50.892C100.121 50.82 100.089 50.736 100.089 50.64V47.244C100.089 46.916 100.041 46.62 99.945 46.356C99.849 46.092 99.693 45.884 99.477 45.732C99.261 45.572 98.969 45.492 98.601 45.492C98.273 45.492 97.961 45.572 97.665 45.732C97.377 45.884 97.141 46.092 96.957 46.356C96.781 46.62 96.693 46.916 96.693 47.244V50.64C96.693 50.736 96.657 50.82 96.585 50.892C96.513 50.964 96.429 51 96.333 51C96.221 51 96.133 50.964 96.069 50.892C96.005 50.82 95.973 50.736 95.973 50.64V45.264C95.973 45.168 96.005 45.084 96.069 45.012C96.141 44.94 96.229 44.904 96.333 44.904C96.437 44.904 96.521 44.94 96.585 45.012C96.657 45.084 96.693 45.168 96.693 45.264V46.38L96.369 46.824C96.393 46.584 96.469 46.344 96.597 46.104C96.733 45.864 96.909 45.648 97.125 45.456C97.341 45.264 97.585 45.112 97.857 45C98.137 44.88 98.429 44.82 98.733 44.82ZM111.796 44.82C112.3 44.82 112.708 44.928 113.02 45.144C113.332 45.36 113.56 45.652 113.704 46.02C113.856 46.388 113.932 46.796 113.932 47.244V50.64C113.932 50.736 113.896 50.82 113.824 50.892C113.752 50.964 113.668 51 113.572 51C113.46 51 113.372 50.964 113.308 50.892C113.244 50.82 113.212 50.736 113.212 50.64V47.244C113.212 46.916 113.16 46.62 113.056 46.356C112.96 46.092 112.8 45.884 112.576 45.732C112.352 45.572 112.052 45.492 111.676 45.492C111.34 45.492 111.02 45.572 110.716 45.732C110.42 45.884 110.18 46.092 109.996 46.356C109.812 46.62 109.72 46.916 109.72 47.244V50.64C109.72 50.736 109.684 50.82 109.612 50.892C109.54 50.964 109.456 51 109.36 51C109.248 51 109.16 50.964 109.096 50.892C109.032 50.82 109 50.736 109 50.64V42.48C109 42.384 109.032 42.3 109.096 42.228C109.168 42.156 109.256 42.12 109.36 42.12C109.464 42.12 109.548 42.156 109.612 42.228C109.684 42.3 109.72 42.384 109.72 42.48V46.368L109.444 46.788C109.46 46.54 109.536 46.3 109.672 46.068C109.816 45.828 110 45.616 110.224 45.432C110.448 45.24 110.696 45.092 110.968 44.988C111.24 44.876 111.516 44.82 111.796 44.82ZM120.932 47.928C120.932 48.536 120.8 49.084 120.536 49.572C120.272 50.052 119.912 50.432 119.456 50.712C119 50.984 118.48 51.12 117.896 51.12C117.328 51.12 116.812 50.984 116.348 50.712C115.892 50.432 115.528 50.052 115.256 49.572C114.992 49.084 114.86 48.536 114.86 47.928C114.86 47.312 114.992 46.764 115.256 46.284C115.528 45.804 115.892 45.424 116.348 45.144C116.812 44.864 117.328 44.724 117.896 44.724C118.48 44.724 119 44.864 119.456 45.144C119.912 45.424 120.272 45.804 120.536 46.284C120.8 46.764 120.932 47.312 120.932 47.928ZM120.212 47.928C120.212 47.44 120.112 47.008 119.912 46.632C119.712 46.248 119.436 45.948 119.084 45.732C118.74 45.508 118.344 45.396 117.896 45.396C117.464 45.396 117.072 45.508 116.72 45.732C116.368 45.948 116.088 46.248 115.88 46.632C115.68 47.008 115.58 47.44 115.58 47.928C115.58 48.416 115.68 48.848 115.88 49.224C116.088 49.6 116.368 49.9 116.72 50.124C117.072 50.34 117.464 50.448 117.896 50.448C118.344 50.448 118.74 50.34 119.084 50.124C119.436 49.9 119.712 49.6 119.912 49.224C120.112 48.848 120.212 48.416 120.212 47.928ZM124.754 44.724C125.282 44.724 125.702 44.832 126.014 45.048C126.334 45.256 126.562 45.544 126.698 45.912C126.842 46.272 126.914 46.672 126.914 47.112V50.64C126.914 50.736 126.878 50.82 126.806 50.892C126.734 50.964 126.65 51 126.554 51C126.442 51 126.354 50.964 126.29 50.892C126.226 50.82 126.194 50.736 126.194 50.64V47.148C126.194 46.828 126.142 46.536 126.038 46.272C125.934 46.008 125.762 45.796 125.522 45.636C125.29 45.476 124.982 45.396 124.598 45.396C124.254 45.396 123.926 45.476 123.614 45.636C123.31 45.796 123.062 46.008 122.87 46.272C122.678 46.536 122.582 46.828 122.582 47.148V50.64C122.582 50.736 122.546 50.82 122.474 50.892C122.402 50.964 122.318 51 122.222 51C122.11 51 122.022 50.964 121.958 50.892C121.894 50.82 121.862 50.736 121.862 50.64V45.264C121.862 45.168 121.894 45.084 121.958 45.012C122.03 44.94 122.118 44.904 122.222 44.904C122.326 44.904 122.41 44.94 122.474 45.012C122.546 45.084 122.582 45.168 122.582 45.264V46.272L122.306 46.704C122.322 46.448 122.402 46.204 122.546 45.972C122.698 45.732 122.89 45.52 123.122 45.336C123.354 45.144 123.61 44.996 123.89 44.892C124.178 44.78 124.466 44.724 124.754 44.724ZM130.972 51.12C130.356 51.12 129.812 50.988 129.34 50.724C128.868 50.46 128.5 50.092 128.236 49.62C127.972 49.148 127.84 48.596 127.84 47.964C127.84 47.284 127.972 46.704 128.236 46.224C128.508 45.744 128.856 45.376 129.28 45.12C129.712 44.856 130.168 44.724 130.648 44.724C131 44.724 131.34 44.788 131.668 44.916C132.004 45.036 132.3 45.22 132.556 45.468C132.82 45.708 133.028 46.004 133.18 46.356C133.34 46.708 133.428 47.116 133.444 47.58C133.436 47.676 133.396 47.76 133.324 47.832C133.252 47.896 133.168 47.928 133.072 47.928H128.26L128.116 47.28H132.844L132.688 47.424V47.184C132.656 46.808 132.536 46.488 132.328 46.224C132.12 45.96 131.868 45.76 131.572 45.624C131.276 45.488 130.968 45.42 130.648 45.42C130.408 45.42 130.16 45.468 129.904 45.564C129.656 45.66 129.428 45.812 129.22 46.02C129.02 46.22 128.856 46.48 128.728 46.8C128.6 47.112 128.536 47.484 128.536 47.916C128.536 48.388 128.632 48.816 128.824 49.2C129.016 49.584 129.292 49.888 129.652 50.112C130.02 50.336 130.456 50.448 130.96 50.448C131.24 50.448 131.492 50.408 131.716 50.328C131.94 50.248 132.136 50.144 132.304 50.016C132.472 49.88 132.612 49.74 132.724 49.596C132.812 49.524 132.9 49.488 132.988 49.488C133.068 49.488 133.136 49.52 133.192 49.584C133.256 49.648 133.288 49.72 133.288 49.8C133.288 49.896 133.248 49.98 133.168 50.052C132.928 50.34 132.616 50.592 132.232 50.808C131.848 51.016 131.428 51.12 130.972 51.12ZM138.898 44.76C139.002 44.76 139.086 44.796 139.15 44.868C139.222 44.94 139.258 45.024 139.258 45.12V50.412C139.258 51.06 139.13 51.604 138.874 52.044C138.618 52.492 138.274 52.828 137.842 53.052C137.41 53.284 136.918 53.4 136.366 53.4C136.022 53.4 135.702 53.36 135.406 53.28C135.118 53.208 134.882 53.112 134.698 52.992C134.602 52.936 134.53 52.868 134.482 52.788C134.434 52.708 134.43 52.624 134.47 52.536C134.51 52.424 134.57 52.348 134.65 52.308C134.738 52.276 134.826 52.28 134.914 52.32C135.05 52.392 135.246 52.48 135.502 52.584C135.758 52.688 136.05 52.74 136.378 52.74C136.818 52.74 137.198 52.648 137.518 52.464C137.846 52.28 138.098 52.012 138.274 51.66C138.45 51.316 138.538 50.904 138.538 50.424V49.56L138.622 49.848C138.502 50.096 138.33 50.316 138.106 50.508C137.89 50.7 137.638 50.852 137.35 50.964C137.07 51.068 136.77 51.12 136.45 51.12C135.97 51.12 135.57 51.024 135.25 50.832C134.938 50.632 134.706 50.36 134.554 50.016C134.402 49.672 134.326 49.268 134.326 48.804V45.12C134.326 45.024 134.358 44.94 134.422 44.868C134.486 44.796 134.574 44.76 134.686 44.76C134.79 44.76 134.874 44.796 134.938 44.868C135.01 44.94 135.046 45.024 135.046 45.12V48.696C135.046 49.256 135.166 49.688 135.406 49.992C135.654 50.296 136.054 50.448 136.606 50.448C136.95 50.448 137.266 50.368 137.554 50.208C137.842 50.04 138.078 49.824 138.262 49.56C138.446 49.288 138.538 49 138.538 48.696V45.12C138.538 45.024 138.57 44.94 138.634 44.868C138.706 44.796 138.794 44.76 138.898 44.76ZM145.448 42.168C145.568 42.168 145.696 42.18 145.832 42.204C145.976 42.228 146.1 42.272 146.204 42.336C146.308 42.392 146.36 42.48 146.36 42.6C146.36 42.688 146.328 42.768 146.264 42.84C146.2 42.904 146.128 42.936 146.048 42.936C145.968 42.936 145.868 42.916 145.748 42.876C145.628 42.828 145.5 42.804 145.364 42.804C145.196 42.804 145.052 42.844 144.932 42.924C144.812 42.996 144.72 43.104 144.656 43.248C144.592 43.384 144.56 43.552 144.56 43.752V50.64C144.56 50.736 144.524 50.82 144.452 50.892C144.388 50.964 144.304 51 144.2 51C144.096 51 144.008 50.964 143.936 50.892C143.872 50.82 143.84 50.736 143.84 50.64V43.752C143.84 43.24 143.988 42.848 144.284 42.576C144.588 42.304 144.976 42.168 145.448 42.168ZM145.904 44.988C146 44.988 146.08 45.02 146.144 45.084C146.208 45.148 146.24 45.228 146.24 45.324C146.24 45.42 146.208 45.5 146.144 45.564C146.08 45.628 146 45.66 145.904 45.66H142.964C142.876 45.66 142.796 45.628 142.724 45.564C142.66 45.492 142.628 45.412 142.628 45.324C142.628 45.22 142.66 45.14 142.724 45.084C142.796 45.02 142.876 44.988 142.964 44.988H145.904ZM147.312 51C147.2 51 147.112 50.964 147.048 50.892C146.984 50.82 146.952 50.736 146.952 50.64V45.264C146.952 45.168 146.984 45.084 147.048 45.012C147.12 44.94 147.208 44.904 147.312 44.904C147.416 44.904 147.5 44.94 147.564 45.012C147.636 45.084 147.672 45.168 147.672 45.264V47.064L147.492 47.1C147.516 46.82 147.584 46.544 147.696 46.272C147.816 45.992 147.976 45.736 148.176 45.504C148.376 45.272 148.612 45.084 148.884 44.94C149.164 44.796 149.476 44.724 149.82 44.724C149.964 44.724 150.104 44.756 150.24 44.82C150.376 44.876 150.444 44.972 150.444 45.108C150.444 45.228 150.412 45.32 150.348 45.384C150.284 45.448 150.208 45.48 150.12 45.48C150.048 45.48 149.968 45.46 149.88 45.42C149.8 45.38 149.692 45.36 149.556 45.36C149.332 45.36 149.108 45.428 148.884 45.564C148.66 45.692 148.456 45.868 148.272 46.092C148.088 46.316 147.94 46.568 147.828 46.848C147.724 47.12 147.672 47.396 147.672 47.676V50.64C147.672 50.736 147.636 50.82 147.564 50.892C147.492 50.964 147.408 51 147.312 51ZM156.412 47.928C156.412 48.536 156.28 49.084 156.016 49.572C155.752 50.052 155.392 50.432 154.936 50.712C154.48 50.984 153.96 51.12 153.376 51.12C152.808 51.12 152.292 50.984 151.828 50.712C151.372 50.432 151.008 50.052 150.736 49.572C150.472 49.084 150.34 48.536 150.34 47.928C150.34 47.312 150.472 46.764 150.736 46.284C151.008 45.804 151.372 45.424 151.828 45.144C152.292 44.864 152.808 44.724 153.376 44.724C153.96 44.724 154.48 44.864 154.936 45.144C155.392 45.424 155.752 45.804 156.016 46.284C156.28 46.764 156.412 47.312 156.412 47.928ZM155.692 47.928C155.692 47.44 155.592 47.008 155.392 46.632C155.192 46.248 154.916 45.948 154.564 45.732C154.22 45.508 153.824 45.396 153.376 45.396C152.944 45.396 152.552 45.508 152.2 45.732C151.848 45.948 151.568 46.248 151.36 46.632C151.16 47.008 151.06 47.44 151.06 47.928C151.06 48.416 151.16 48.848 151.36 49.224C151.568 49.6 151.848 49.9 152.2 50.124C152.552 50.34 152.944 50.448 153.376 50.448C153.824 50.448 154.22 50.34 154.564 50.124C154.916 49.9 155.192 49.6 155.392 49.224C155.592 48.848 155.692 48.416 155.692 47.928ZM160.102 44.82C160.598 44.82 161.022 44.952 161.374 45.216C161.726 45.472 161.966 45.856 162.094 46.368L161.926 46.416L161.998 46.2C162.102 45.96 162.274 45.736 162.514 45.528C162.762 45.312 163.042 45.14 163.354 45.012C163.666 44.884 163.982 44.82 164.302 44.82C164.806 44.82 165.21 44.928 165.514 45.144C165.826 45.36 166.05 45.652 166.186 46.02C166.33 46.38 166.402 46.788 166.402 47.244V50.64C166.402 50.736 166.366 50.82 166.294 50.892C166.23 50.964 166.146 51 166.042 51C165.938 51 165.85 50.964 165.778 50.892C165.714 50.82 165.682 50.736 165.682 50.64V47.28C165.682 46.952 165.63 46.652 165.526 46.38C165.422 46.108 165.258 45.892 165.034 45.732C164.81 45.572 164.51 45.492 164.134 45.492C163.806 45.492 163.49 45.572 163.186 45.732C162.89 45.892 162.646 46.108 162.454 46.38C162.27 46.652 162.178 46.952 162.178 47.28V50.64C162.178 50.736 162.142 50.82 162.07 50.892C162.006 50.964 161.922 51 161.818 51C161.714 51 161.626 50.964 161.554 50.892C161.49 50.82 161.458 50.736 161.458 50.64V47.244C161.458 46.916 161.41 46.62 161.314 46.356C161.218 46.092 161.062 45.884 160.846 45.732C160.63 45.572 160.338 45.492 159.97 45.492C159.642 45.492 159.33 45.572 159.034 45.732C158.746 45.884 158.51 46.092 158.326 46.356C158.15 46.62 158.062 46.916 158.062 47.244V50.64C158.062 50.736 158.026 50.82 157.954 50.892C157.882 50.964 157.798 51 157.702 51C157.59 51 157.502 50.964 157.438 50.892C157.374 50.82 157.342 50.736 157.342 50.64V45.264C157.342 45.168 157.374 45.084 157.438 45.012C157.51 44.94 157.598 44.904 157.702 44.904C157.806 44.904 157.89 44.94 157.954 45.012C158.026 45.084 158.062 45.168 158.062 45.264V46.38L157.738 46.824C157.762 46.584 157.838 46.344 157.966 46.104C158.102 45.864 158.278 45.648 158.494 45.456C158.71 45.264 158.954 45.112 159.226 45C159.506 44.88 159.798 44.82 160.102 44.82ZM173.26 44.724C173.788 44.724 174.208 44.832 174.52 45.048C174.84 45.256 175.068 45.544 175.204 45.912C175.348 46.272 175.42 46.672 175.42 47.112V50.64C175.42 50.736 175.384 50.82 175.312 50.892C175.24 50.964 175.156 51 175.06 51C174.948 51 174.86 50.964 174.796 50.892C174.732 50.82 174.7 50.736 174.7 50.64V47.148C174.7 46.828 174.648 46.536 174.544 46.272C174.44 46.008 174.268 45.796 174.028 45.636C173.796 45.476 173.488 45.396 173.104 45.396C172.76 45.396 172.432 45.476 172.12 45.636C171.816 45.796 171.568 46.008 171.376 46.272C171.184 46.536 171.088 46.828 171.088 47.148V50.64C171.088 50.736 171.052 50.82 170.98 50.892C170.908 50.964 170.824 51 170.728 51C170.616 51 170.528 50.964 170.464 50.892C170.4 50.82 170.368 50.736 170.368 50.64V45.264C170.368 45.168 170.4 45.084 170.464 45.012C170.536 44.94 170.624 44.904 170.728 44.904C170.832 44.904 170.916 44.94 170.98 45.012C171.052 45.084 171.088 45.168 171.088 45.264V46.272L170.812 46.704C170.828 46.448 170.908 46.204 171.052 45.972C171.204 45.732 171.396 45.52 171.628 45.336C171.86 45.144 172.116 44.996 172.396 44.892C172.684 44.78 172.972 44.724 173.26 44.724ZM181.734 44.868C181.838 44.868 181.922 44.904 181.986 44.976C182.058 45.048 182.094 45.136 182.094 45.24V50.64C182.094 50.736 182.058 50.82 181.986 50.892C181.914 50.964 181.83 51 181.734 51C181.63 51 181.542 50.964 181.47 50.892C181.406 50.82 181.374 50.736 181.374 50.64V49.212L181.578 49.116C181.578 49.34 181.514 49.568 181.386 49.8C181.266 50.032 181.098 50.248 180.882 50.448C180.666 50.648 180.41 50.812 180.114 50.94C179.826 51.06 179.514 51.12 179.178 51.12C178.634 51.12 178.146 50.98 177.714 50.7C177.29 50.42 176.954 50.036 176.706 49.548C176.466 49.06 176.346 48.512 176.346 47.904C176.346 47.28 176.47 46.732 176.718 46.26C176.966 45.78 177.302 45.404 177.726 45.132C178.15 44.86 178.63 44.724 179.166 44.724C179.51 44.724 179.83 44.784 180.126 44.904C180.43 45.024 180.694 45.188 180.918 45.396C181.142 45.604 181.314 45.844 181.434 46.116C181.562 46.38 181.626 46.656 181.626 46.944L181.374 46.764V45.24C181.374 45.136 181.406 45.048 181.47 44.976C181.542 44.904 181.63 44.868 181.734 44.868ZM179.238 50.448C179.662 50.448 180.038 50.34 180.366 50.124C180.694 49.9 180.95 49.596 181.134 49.212C181.326 48.82 181.422 48.384 181.422 47.904C181.422 47.432 181.326 47.008 181.134 46.632C180.95 46.256 180.694 45.956 180.366 45.732C180.038 45.508 179.662 45.396 179.238 45.396C178.822 45.396 178.446 45.504 178.11 45.72C177.782 45.936 177.522 46.232 177.33 46.608C177.146 46.984 177.054 47.416 177.054 47.904C177.054 48.384 177.146 48.82 177.33 49.212C177.522 49.596 177.782 49.9 178.11 50.124C178.438 50.34 178.814 50.448 179.238 50.448ZM182.987 44.892H185.783C185.879 44.892 185.959 44.928 186.023 45C186.087 45.064 186.119 45.144 186.119 45.24C186.119 45.328 186.087 45.404 186.023 45.468C185.959 45.532 185.879 45.564 185.783 45.564H182.987C182.891 45.564 182.807 45.532 182.735 45.468C182.671 45.396 182.639 45.316 182.639 45.228C182.639 45.132 182.671 45.052 182.735 44.988C182.807 44.924 182.891 44.892 182.987 44.892ZM184.223 43.2C184.327 43.2 184.411 43.236 184.475 43.308C184.547 43.38 184.583 43.464 184.583 43.56V49.584C184.583 49.808 184.611 49.976 184.667 50.088C184.731 50.2 184.811 50.276 184.907 50.316C185.003 50.348 185.099 50.364 185.195 50.364C185.259 50.364 185.315 50.356 185.363 50.34C185.419 50.316 185.479 50.304 185.543 50.304C185.615 50.304 185.675 50.332 185.723 50.388C185.779 50.444 185.807 50.516 185.807 50.604C185.807 50.716 185.743 50.812 185.615 50.892C185.487 50.964 185.335 51 185.159 51C185.087 51 184.979 50.996 184.835 50.988C184.691 50.972 184.543 50.928 184.391 50.856C184.239 50.776 184.111 50.64 184.007 50.448C183.911 50.256 183.863 49.98 183.863 49.62V43.56C183.863 43.464 183.895 43.38 183.959 43.308C184.031 43.236 184.119 43.2 184.223 43.2ZM191.434 44.904C191.538 44.904 191.622 44.94 191.686 45.012C191.758 45.084 191.794 45.168 191.794 45.264V48.648C191.794 49.44 191.57 50.044 191.122 50.46C190.674 50.876 190.07 51.084 189.31 51.084C188.558 51.084 187.958 50.876 187.51 50.46C187.07 50.044 186.85 49.44 186.85 48.648V45.264C186.85 45.168 186.882 45.084 186.946 45.012C187.018 44.94 187.106 44.904 187.21 44.904C187.314 44.904 187.398 44.94 187.462 45.012C187.534 45.084 187.57 45.168 187.57 45.264V48.648C187.57 49.224 187.722 49.664 188.026 49.968C188.338 50.264 188.766 50.412 189.31 50.412C189.862 50.412 190.294 50.264 190.606 49.968C190.918 49.664 191.074 49.224 191.074 48.648V45.264C191.074 45.168 191.106 45.084 191.17 45.012C191.234 44.94 191.322 44.904 191.434 44.904ZM193.442 51C193.33 51 193.242 50.964 193.178 50.892C193.114 50.82 193.082 50.736 193.082 50.64V45.264C193.082 45.168 193.114 45.084 193.178 45.012C193.25 44.94 193.338 44.904 193.442 44.904C193.546 44.904 193.63 44.94 193.694 45.012C193.766 45.084 193.802 45.168 193.802 45.264V47.064L193.622 47.1C193.646 46.82 193.714 46.544 193.826 46.272C193.946 45.992 194.106 45.736 194.306 45.504C194.506 45.272 194.742 45.084 195.014 44.94C195.294 44.796 195.606 44.724 195.95 44.724C196.094 44.724 196.234 44.756 196.37 44.82C196.506 44.876 196.574 44.972 196.574 45.108C196.574 45.228 196.542 45.32 196.478 45.384C196.414 45.448 196.338 45.48 196.25 45.48C196.178 45.48 196.098 45.46 196.01 45.42C195.93 45.38 195.822 45.36 195.686 45.36C195.462 45.36 195.238 45.428 195.014 45.564C194.79 45.692 194.586 45.868 194.402 46.092C194.218 46.316 194.07 46.568 193.958 46.848C193.854 47.12 193.802 47.396 193.802 47.676V50.64C193.802 50.736 193.766 50.82 193.694 50.892C193.622 50.964 193.538 51 193.442 51ZM199.601 51.12C198.985 51.12 198.441 50.988 197.969 50.724C197.497 50.46 197.129 50.092 196.865 49.62C196.601 49.148 196.469 48.596 196.469 47.964C196.469 47.284 196.601 46.704 196.865 46.224C197.137 45.744 197.485 45.376 197.909 45.12C198.341 44.856 198.797 44.724 199.277 44.724C199.629 44.724 199.969 44.788 200.297 44.916C200.633 45.036 200.929 45.22 201.185 45.468C201.449 45.708 201.657 46.004 201.809 46.356C201.969 46.708 202.057 47.116 202.073 47.58C202.065 47.676 202.025 47.76 201.953 47.832C201.881 47.896 201.797 47.928 201.701 47.928H196.889L196.745 47.28H201.473L201.317 47.424V47.184C201.285 46.808 201.165 46.488 200.957 46.224C200.749 45.96 200.497 45.76 200.201 45.624C199.905 45.488 199.597 45.42 199.277 45.42C199.037 45.42 198.789 45.468 198.533 45.564C198.285 45.66 198.057 45.812 197.849 46.02C197.649 46.22 197.485 46.48 197.357 46.8C197.229 47.112 197.165 47.484 197.165 47.916C197.165 48.388 197.261 48.816 197.453 49.2C197.645 49.584 197.921 49.888 198.281 50.112C198.649 50.336 199.085 50.448 199.589 50.448C199.869 50.448 200.121 50.408 200.345 50.328C200.569 50.248 200.765 50.144 200.933 50.016C201.101 49.88 201.241 49.74 201.353 49.596C201.441 49.524 201.529 49.488 201.617 49.488C201.697 49.488 201.765 49.52 201.821 49.584C201.885 49.648 201.917 49.72 201.917 49.8C201.917 49.896 201.877 49.98 201.797 50.052C201.557 50.34 201.245 50.592 200.861 50.808C200.477 51.016 200.057 51.12 199.601 51.12Z" fill="white"/>
<path d="M34.0313 25.0137C33.6439 25.4065 32.8063 25.3027 32.5641 25.3846C33.5327 25.7774 34.8385 27.5505 35.2421 28.2051C37.4216 26.7321 37.4359 25.1282 36.2108 24.5227C34.9742 23.9116 34.5156 24.5227 34.0313 25.0137Z" fill="black"/>
<path fill-rule="evenodd" clip-rule="evenodd" d="M22.6369 6.7862C21.8413 7.19431 20.9895 8.35123 20.5095 9.12283C24.315 9.69544 31.4958 10.2471 38.7219 9.23697C37.2988 7.50728 36.2223 6.88194 35.8489 6.7862C29.9769 5.73203 23.8113 6.18382 22.6369 6.7862ZM16.3299 13.3018C16.4403 12.043 17.2157 10.1904 19.7102 9.60475C23.5109 10.2501 31.8379 10.9927 40.005 9.65097C41.3006 10.0031 42.9115 11.0264 43.4024 13.3933C40.4378 13.6996 37.4715 13.8758 34.6147 13.9578C33.0939 13.2169 31.4391 12.8102 29.7082 12.8102C28.0187 12.8102 26.4016 13.1977 24.9108 13.9054C21.4446 13.7722 18.4765 13.5361 16.3299 13.3018ZM23.8678 14.4646C20.7975 14.3253 18.1659 14.1092 16.2158 13.8951C13.0197 14.8329 12.7332 17.7815 13.0268 19.4187C14.678 19.5421 16.6171 19.662 18.7808 19.763C20.0927 17.5116 21.8398 15.6811 23.8678 14.4646ZM18.4534 20.3506C16.3201 20.2483 14.4114 20.128 12.7892 20.0048C10.5556 22.034 10.8683 23.5672 11.6283 24.4281C13.0714 24.5495 14.8085 24.6722 16.7803 24.7813C17.1656 23.1926 17.7334 21.703 18.4534 20.3506ZM42.6548 24.8589C42.2759 23.2686 41.7143 21.7767 41.0004 20.421C43.1523 20.3264 45.3294 20.198 47.5067 20.0296C48.4719 20.9003 49.6687 22.5884 49.0339 24.4206C46.9055 24.6045 44.7713 24.7487 42.6548 24.8589ZM16.6455 25.3771C14.9752 25.2838 13.4746 25.181 12.1801 25.0776C8.50324 26.5337 9.77828 29.054 11.1328 30.4092C12.5381 30.5331 14.2586 30.6599 16.2308 30.774C16.2121 30.4114 16.2026 30.0455 16.2026 29.677C16.2026 28.191 16.3565 26.7498 16.6455 25.3771ZM43.1814 30.8546C43.2029 30.4655 43.2138 30.0728 43.2138 29.677C43.2138 28.2191 43.0657 26.8044 42.7872 25.4551C44.792 25.3497 46.8124 25.2139 48.8285 25.0427C50.1387 25.7933 51.9685 27.8193 49.6824 30.3872C47.5156 30.5828 45.3403 30.7366 43.1814 30.8546ZM16.2706 31.3797C14.2825 31.2652 12.5465 31.1378 11.1266 31.0133C8.23784 33.4689 10.5095 35.6408 12.1987 36.5226C13.7005 36.6428 15.4826 36.7623 17.4877 36.867C16.8477 35.1734 16.4268 33.3253 16.2706 31.3797ZM41.8993 36.9444C42.5469 35.2531 42.9755 33.4059 43.1392 31.4601C45.2656 31.3446 47.4082 31.1946 49.5434 31.0043C50.3626 32.2881 51.0366 34.7069 48.7512 36.4925C46.463 36.6864 44.1693 36.8346 41.8993 36.9444ZM17.7329 37.4828C15.4533 37.3665 13.4515 37.2306 11.8091 37.0951C10.4263 38.6426 11.8634 40.4911 13.4194 41.7357C15.4448 41.8824 17.8738 42.0223 20.5986 42.1293C19.4401 40.8067 18.4668 39.2353 17.7329 37.4828ZM38.7614 42.1934C39.9278 40.8767 40.9093 39.3093 41.6513 37.5593C43.7293 37.4615 45.8283 37.3318 47.9259 37.1646C48.3488 38.3804 48.5135 40.505 46.8927 41.7603C44.1623 41.9627 41.4353 42.103 38.7614 42.1934ZM21.1779 42.7541C23.5035 45.1231 26.473 46.5437 29.7082 46.5437C32.9156 46.5437 35.8619 45.1474 38.1785 42.8149C40.58 42.7402 43.0277 42.6258 45.4853 42.4628C45.2735 42.5273 45.0466 42.5827 44.8037 42.628C45.2612 43.6448 45.3622 45.6547 43.1636 47.1199C33.0701 47.6708 23.3364 47.4408 16.5107 47.0544C14.9812 46.0899 13.6108 44.5358 14.7097 42.628C14.593 42.5592 14.4718 42.4844 14.3477 42.4042C16.3257 42.5367 18.6303 42.6602 21.1779 42.7541ZM40.6758 19.8322C39.3815 17.5872 37.6561 15.7557 35.6512 14.5268C38.3177 14.4298 41.0668 14.2489 43.8112 13.9559C45.467 14.4768 47.9963 16.1402 47.2274 19.447C45.0341 19.6137 42.8416 19.74 40.6758 19.8322ZM17.7957 47.7265C17.948 47.7915 18.0946 47.849 18.2329 47.8989C18.3587 49.1887 18.9949 50.0183 19.7091 50.5261C25.2073 50.7617 32.0216 50.8681 39.1974 50.6116C40.2887 49.8189 40.6554 48.7444 40.6933 48.2001C41.1328 48.0761 41.5311 47.938 41.8917 47.7884C32.874 48.2231 24.2344 48.0533 17.7957 47.7265ZM21.4625 51.212C21.4153 51.2071 21.3656 51.2006 21.3139 51.1924C26.1948 51.3696 31.9566 51.4375 38.0176 51.2532C37.1416 52.317 34.1659 54.2478 28.9493 53.7721C23.6645 53.2902 21.7561 51.8646 21.4625 51.212Z" fill="#FEC868"/>
<mask id="mask0_237_1994" style="mask-type:alpha" maskUnits="userSpaceOnUse" x="18" y="15" width="23" height="30">
<path d="M40.6614 29.702C40.6614 37.7685 35.7367 44.3077 29.6617 44.3077C23.5868 44.3077 18.6621 37.7685 18.6621 29.702C18.6621 21.6354 23.5868 15.0962 29.6617 15.0962C35.7367 15.0962 40.6614 21.6354 40.6614 29.702Z" fill="#D9D9D9"/>
</mask>
<g mask="url(#mask0_237_1994)">
<path d="M40.6614 29.702C40.6614 37.7685 35.7367 44.3077 29.6617 44.3077C23.5868 44.3077 18.6621 37.7685 18.6621 29.702C18.6621 21.6354 23.5868 15.0962 29.6617 15.0962C35.7367 15.0962 40.6614 21.6354 40.6614 29.702Z" fill="#E45826"/>
<path d="M32.1887 24.2669C32.1303 24.2285 32.0594 24.2037 31.9841 24.1955C31.9087 24.1873 31.832 24.196 31.7626 24.2206L30.4717 24.6736L29.7216 23.6065C29.6858 23.5567 29.6339 23.5152 29.5711 23.4864C29.5084 23.4576 29.4371 23.4424 29.3645 23.4424C29.2919 23.4424 29.2206 23.4576 29.1578 23.4864C29.0951 23.5152 29.0432 23.5567 29.0073 23.6065L28.2572 24.6736L26.9663 24.2206C26.8968 24.1961 26.82 24.1874 26.7445 24.1955C26.6691 24.2036 26.598 24.2282 26.5393 24.2666C26.4807 24.3049 26.4368 24.3554 26.4126 24.4124C26.3884 24.4694 26.3849 24.5306 26.4025 24.5891L27.0505 26.7697C27.0629 26.8119 27.086 26.8517 27.1185 26.8866C27.1509 26.9216 27.192 26.951 27.2393 26.973C27.3033 27.0033 27.3765 27.0193 27.4511 27.0193C27.4873 27.0193 27.5234 27.0152 27.5582 27.0073C28.7394 26.7495 29.987 26.7495 31.1682 27.0073C31.276 27.0296 31.3907 27.0173 31.4871 26.973C31.5346 26.9513 31.576 26.922 31.6085 26.8869C31.641 26.8519 31.6639 26.812 31.6759 26.7697L32.3264 24.5891C32.3438 24.5306 32.3401 24.4694 32.3158 24.4125C32.2914 24.3556 32.2474 24.3051 32.1887 24.2669Z" fill="#FEC868"/>
<path d="M25.7679 28.6432C29.2477 27.0013 32.4545 27.9591 33.7509 28.6432C38.8273 31.7628 39.2776 38.2893 38.8682 41.1626L30.2712 45.6778L23.8865 42.5539C25.3193 39.4754 22.4928 36.2369 21.4694 36.0316C20.4459 35.8264 20.4459 32.1322 21.4694 32.3374C22.4928 32.5426 24.7445 32.3374 24.7445 30.9007C24.7445 29.7514 25.7679 28.9168 25.7679 28.6432Z" fill="#121212"/>
<path d="M27.3968 31.4654L27.1207 31.6499C28.8138 32.2404 29.7892 31.4039 30.0652 30.9118C29.6971 30.3583 28.961 29.9892 28.2249 30.266C27.636 30.4875 27.4274 31.1579 27.3968 31.4654Z" fill="#FEC868"/>
<mask id="mask1_237_1994" style="mask-type:alpha" maskUnits="userSpaceOnUse" x="20" y="27" width="19" height="19">
<path d="M25.7679 28.6432C29.2477 27.0013 32.4545 27.9591 33.7509 28.6432C38.8273 31.7628 39.2776 38.2893 38.8682 41.1626L30.2712 45.6778L23.8865 42.5539C25.3193 39.4754 22.4928 36.2369 21.4694 36.0316C20.4459 35.8264 20.4459 32.1322 21.4694 32.3374C22.4928 32.5426 24.7445 32.3374 24.7445 30.9007C24.7445 29.7514 25.7679 28.9168 25.7679 28.6432Z" fill="#121212"/>
</mask>
<g mask="url(#mask1_237_1994)">
<path d="M25.5631 32.3375C25.3994 31.1882 24.949 30.6272 24.7443 30.4904C23.3115 32.3375 21.8787 31.3114 20.8552 31.7218C19.8317 32.1323 20.2411 34.8004 20.4458 35.6213C20.6505 36.4423 21.0599 36.237 23.9256 37.6737C26.7913 39.1103 29.0429 35.0056 29.0429 33.7742C29.0429 32.5428 25.7678 33.7742 25.5631 32.3375Z" fill="#FFE4B5"/>
<path d="M20 34.359C20.7479 35.2322 22.8205 36.5421 25.1282 34.7956C24.1667 36.1055 21.7949 37.852 20 34.359Z" fill="#121212"/>
</g>
<path d="M22.6519 32.3892C21.9969 32.0609 21.2873 32.1156 21.0144 32.184C19.7862 32.3892 20.8097 33.8259 21.6285 33.8259C22.4472 33.8259 23.4707 32.7997 22.6519 32.3892Z" fill="#121212"/>
<path d="M37.7057 32.2359C36.9746 30.4595 34.8678 28.5792 34.1774 28.4033C36.4444 28.7172 36.3272 25.8535 38.596 27.9422C39.7901 29.0415 38.7021 31.5771 37.7057 32.2359Z" fill="#121212"/>
</g>
</svg>
